<?xml version="1.0" encoding="UTF-8" standalone="no"?>
<!DOCTYPE svg PUBLIC "-//W3C//DTD SVG 1.1//EN"
 "http://www.w3.org/Graphics/SVG/1.1/DTD/svg11.dtd">
<!-- Generated by graphviz version 2.47.3 (0)
 -->
<!-- Title: G Pages: 1 -->
<svg width="494pt" height="526pt"
 viewBox="0.00 0.00 494.43 525.85" xmlns="http://www.w3.org/2000/svg" xmlns:xlink="http://www.w3.org/1999/xlink">
<g id="graph0" class="graph" transform="scale(1 1) rotate(0) translate(4 521.85)">
<title>G</title><style>.edge>path:hover{stroke-width:8}</style>
<polygon fill="white" stroke="transparent" points="-4,4 -4,-521.85 490.43,-521.85 490.43,4 -4,4"/>
<!-- hashids -->
<g id="node1" class="node">
<title>hashids</title><style>.edge>path:hover{stroke-width:8}</style>
<ellipse fill="#b65353" stroke="black" cx="60" cy="-246.85" rx="31.58" ry="18"/>
<text text-anchor="middle" x="60" y="-244.35" font-family="Helvetica,sans-Serif" font-size="10.00" fill="#ffffff">hashids</text>
</g>
<!-- jwave_core -->
<g id="node5" class="node">
<title>jwave_core</title><style>.edge>path:hover{stroke-width:8}</style>
<ellipse fill="#38a865" stroke="black" cx="124" cy="-96.43" rx="41.41" ry="18"/>
<text text-anchor="middle" x="124" y="-93.93" font-family="Helvetica,sans-Serif" font-size="10.00" fill="#ffffff">jwave.core</text>
</g>
<!-- hashids&#45;&gt;jwave_core -->
<g id="edge1" class="edge">
<title>hashids&#45;&gt;jwave_core</title><style>.edge>path:hover{stroke-width:8}</style>
<path fill="none" stroke="black" d="M57.89,-228.7C56.23,-208.83 55.89,-175.6 68,-150.43 73.95,-138.05 84.12,-127.08 94.18,-118.38"/>
<polygon fill="#b65353" stroke="black" points="96.59,-120.94 102.14,-111.91 92.17,-115.51 96.59,-120.94"/>
</g>
<!-- jax -->
<g id="node2" class="node">
<title>jax</title><style>.edge>path:hover{stroke-width:8}</style>
<ellipse fill="#b5df0b" stroke="black" cx="250" cy="-318.85" rx="27" ry="18"/>
<text text-anchor="middle" x="250" y="-316.35" font-family="Helvetica,sans-Serif" font-size="10.00" fill="#000000">jax</text>
</g>
<!-- jwave_discretization -->
<g id="node6" class="node">
<title>jwave_discretization</title><style>.edge>path:hover{stroke-width:8}</style>
<ellipse fill="#347950" stroke="black" cx="195" cy="-21.21" rx="58.88" ry="21.43"/>
<text text-anchor="middle" x="195" y="-24.21" font-family="Helvetica,sans-Serif" font-size="10.00" fill="#ffffff">jwave.</text>
<text text-anchor="middle" x="195" y="-13.21" font-family="Helvetica,sans-Serif" font-size="10.00" fill="#ffffff">discretization</text>
</g>
<!-- jax&#45;&gt;jwave_discretization -->
<g id="edge2" class="edge">
<title>jax&#45;&gt;jwave_discretization</title><style>.edge>path:hover{stroke-width:8}</style>
<path fill="none" stroke="black" d="M242.25,-301.38C236.56,-287.16 230.54,-266.08 235,-247.85"/>
<path fill="none" stroke="black" d="M235,-245.85C242.74,-214.25 235,-205.18 235,-172.64"/>
<path fill="none" stroke="black" d="M235,-170.64C235,-133.56 199.8,-134.19 195,-97.43"/>
</g>
<!-- jwave_geometry -->
<g id="node7" class="node">
<title>jwave_geometry</title><style>.edge>path:hover{stroke-width:8}</style>
<ellipse fill="#21bf60" stroke="black" cx="358" cy="-171.64" rx="56.52" ry="18"/>
<text text-anchor="middle" x="358" y="-169.14" font-family="Helvetica,sans-Serif" font-size="10.00" fill="#000000">jwave.geometry</text>
</g>
<!-- jax&#45;&gt;jwave_geometry -->
<g id="edge3" class="edge">
<title>jax&#45;&gt;jwave_geometry</title><style>.edge>path:hover{stroke-width:8}</style>
<path fill="none" stroke="black" d="M235,-245.85C242.62,-214.73 273.76,-196.39 302.8,-185.85"/>
<polygon fill="#b5df0b" stroke="black" points="304.17,-189.08 312.53,-182.56 301.93,-182.44 304.17,-189.08"/>
</g>
<!-- jwave_spectral -->
<g id="node9" class="node">
<title>jwave_spectral</title><style>.edge>path:hover{stroke-width:8}</style>
<ellipse fill="#38a865" stroke="black" cx="275" cy="-96.43" rx="51.61" ry="18"/>
<text text-anchor="middle" x="275" y="-93.93" font-family="Helvetica,sans-Serif" font-size="10.00" fill="#ffffff">jwave.spectral</text>
</g>
<!-- jax&#45;&gt;jwave_spectral -->
<g id="edge4" class="edge">
<title>jax&#45;&gt;jwave_spectral</title><style>.edge>path:hover{stroke-width:8}</style>
<path fill="none" stroke="black" d="M235,-170.64C235,-152.94 244.12,-135.45 253.65,-122.01"/>
<polygon fill="#b5df0b" stroke="black" points="256.62,-123.88 259.88,-113.79 251.05,-119.65 256.62,-123.88"/>
</g>
<!-- jax_numpy -->
<g id="node3" class="node">
<title>jax_numpy</title><style>.edge>path:hover{stroke-width:8}</style>
<ellipse fill="#aed317" stroke="black" cx="278" cy="-390.85" rx="40.06" ry="18"/>
<text text-anchor="middle" x="278" y="-388.35" font-family="Helvetica,sans-Serif" font-size="10.00" fill="#000000">jax.numpy</text>
</g>
<!-- jax_numpy&#45;&gt;jax -->
<g id="edge5" class="edge">
<title>jax_numpy&#45;&gt;jax</title><style>.edge>path:hover{stroke-width:8}</style>
<path fill="none" stroke="black" d="M271.22,-372.91C267.99,-364.83 264.05,-354.97 260.44,-345.96"/>
<polygon fill="#aed317" stroke="black" points="263.68,-344.63 256.72,-336.64 257.18,-347.23 263.68,-344.63"/>
</g>
<!-- jax_numpy&#45;&gt;jwave_discretization -->
<g id="edge6" class="edge">
<title>jax_numpy&#45;&gt;jwave_discretization</title><style>.edge>path:hover{stroke-width:8}</style>
<path fill="none" stroke="black" d="M253.68,-376.49C239.52,-367.31 222.78,-353.75 214,-336.85 164.79,-242.13 208.83,-203.27 195,-97.43"/>
<path fill="none" stroke="black" d="M195,-95.43C193.12,-81.41 192.88,-65.75 193.2,-52.52"/>
<polygon fill="#aed317" stroke="black" points="196.7,-52.63 193.56,-42.51 189.7,-52.38 196.7,-52.63"/>
</g>
<!-- jax_numpy&#45;&gt;jwave_geometry -->
<g id="edge7" class="edge">
<title>jax_numpy&#45;&gt;jwave_geometry</title><style>.edge>path:hover{stroke-width:8}</style>
<path fill="none" stroke="black" d="M305,-245.85C306.34,-226.62 318.6,-208.98 331,-195.84"/>
<polygon fill="#aed317" stroke="black" points="333.61,-198.18 338.23,-188.64 328.67,-193.21 333.61,-198.18"/>
</g>
<!-- jax_numpy&#45;&gt;jwave_spectral -->
<g id="edge8" class="edge">
<title>jax_numpy&#45;&gt;jwave_spectral</title><style>.edge>path:hover{stroke-width:8}</style>
<path fill="none" stroke="black" d="M282.67,-372.54C289.52,-345.96 301.84,-293.41 305,-247.85"/>
<path fill="none" stroke="black" d="M305,-245.85C308.51,-221.85 297.02,-216.58 292,-192.85 287.18,-170.04 282.59,-143.96 279.4,-124.84"/>
<polygon fill="#aed317" stroke="black" points="282.82,-124.03 277.74,-114.73 275.91,-125.17 282.82,-124.03"/>
</g>
<!-- jax_random -->
<g id="node4" class="node">
<title>jax_random</title><style>.edge>path:hover{stroke-width:8}</style>
<ellipse fill="#a6c040" stroke="black" cx="81" cy="-390.85" rx="42.27" ry="18"/>
<text text-anchor="middle" x="81" y="-388.35" font-family="Helvetica,sans-Serif" font-size="10.00" fill="#000000">jax.random</text>
</g>
<!-- jax_random&#45;&gt;jax -->
<g id="edge9" class="edge">
<title>jax_random&#45;&gt;jax</title><style>.edge>path:hover{stroke-width:8}</style>
<path fill="none" stroke="black" d="M110.44,-377.66C140.56,-365.18 187.22,-345.86 218.18,-333.03"/>
<polygon fill="#a6c040" stroke="black" points="219.74,-336.17 227.64,-329.11 217.06,-329.71 219.74,-336.17"/>
</g>
<!-- jax_random&#45;&gt;jwave_discretization -->
<g id="edge10" class="edge">
<title>jax_random&#45;&gt;jwave_discretization</title><style>.edge>path:hover{stroke-width:8}</style>
<path fill="none" stroke="black" d="M64.61,-374.07C40.94,-349.49 0,-299.51 0,-247.85 0,-247.85 0,-247.85 0,-170.64 0,-100.06 81.9,-58.62 139.54,-38.2"/>
<polygon fill="#a6c040" stroke="black" points="140.95,-41.41 149.28,-34.86 138.69,-34.79 140.95,-41.41"/>
</g>
<!-- jwave_core&#45;&gt;jwave_discretization -->
<g id="edge11" class="edge">
<title>jwave_core&#45;&gt;jwave_discretization</title><style>.edge>path:hover{stroke-width:8}</style>
<path fill="none" stroke="black" d="M139.41,-79.54C148.14,-70.54 159.28,-59.04 169.3,-48.71"/>
<polygon fill="#38a865" stroke="black" points="171.89,-51.07 176.34,-41.45 166.87,-46.19 171.89,-51.07"/>
</g>
<!-- jwave_geometry&#45;&gt;jwave_core -->
<g id="edge12" class="edge">
<title>jwave_geometry&#45;&gt;jwave_core</title><style>.edge>path:hover{stroke-width:8}</style>
<path fill="none" stroke="black" d="M319.1,-158.47C276.9,-145.26 209.76,-124.26 166.28,-110.65"/>
<polygon fill="#21bf60" stroke="black" points="167.16,-107.26 156.57,-107.62 165.07,-113.94 167.16,-107.26"/>
</g>
<!-- jwave_geometry&#45;&gt;jwave_discretization -->
<g id="edge13" class="edge">
<title>jwave_geometry&#45;&gt;jwave_discretization</title><style>.edge>path:hover{stroke-width:8}</style>
<path fill="none" stroke="black" d="M397.03,-158.43C426.85,-146.63 461.11,-126.29 450,-97.43"/>
<path fill="none" stroke="black" d="M450,-95.43C436.16,-59.48 331.53,-39.25 260.67,-29.55"/>
<polygon fill="#21bf60" stroke="black" points="260.85,-26.04 250.48,-28.19 259.93,-32.98 260.85,-26.04"/>
</g>
<!-- jwave_geometry&#45;&gt;jwave_spectral -->
<g id="edge14" class="edge">
<title>jwave_geometry&#45;&gt;jwave_spectral</title><style>.edge>path:hover{stroke-width:8}</style>
<path fill="none" stroke="black" d="M339.58,-154.39C328.11,-144.27 313.19,-131.11 300.58,-119.99"/>
<polygon fill="#21bf60" stroke="black" points="302.9,-117.37 293.08,-113.38 298.27,-122.62 302.9,-117.37"/>
</g>
<!-- jwave_operators -->
<g id="node8" class="node">
<title>jwave_operators</title><style>.edge>path:hover{stroke-width:8}</style>
<ellipse fill="#47c278" stroke="black" cx="122" cy="-171.64" rx="44.6" ry="21.43"/>
<text text-anchor="middle" x="122" y="-174.64" font-family="Helvetica,sans-Serif" font-size="10.00" fill="#000000">jwave.</text>
<text text-anchor="middle" x="122" y="-163.64" font-family="Helvetica,sans-Serif" font-size="10.00" fill="#000000">operators</text>
</g>
<!-- jwave_operators&#45;&gt;jwave_core -->
<g id="edge15" class="edge">
<title>jwave_operators&#45;&gt;jwave_core</title><style>.edge>path:hover{stroke-width:8}</style>
<path fill="none" stroke="black" d="M122.56,-150.25C122.77,-142.39 123.02,-133.29 123.25,-124.88"/>
<polygon fill="#47c278" stroke="black" points="126.75,-124.83 123.53,-114.74 119.76,-124.64 126.75,-124.83"/>
</g>
<!-- jwave_spectral&#45;&gt;jwave_discretization -->
<g id="edge16" class="edge">
<title>jwave_spectral&#45;&gt;jwave_discretization</title><style>.edge>path:hover{stroke-width:8}</style>
<path fill="none" stroke="black" d="M257.25,-79.18C247.3,-70.07 234.66,-58.5 223.37,-48.17"/>
<polygon fill="#38a865" stroke="black" points="225.56,-45.44 215.82,-41.27 220.83,-50.6 225.56,-45.44"/>
</g>
<!-- numpy -->
<g id="node10" class="node">
<title>numpy</title><style>.edge>path:hover{stroke-width:8}</style>
<ellipse fill="#266ed9" stroke="black" cx="457" cy="-499.85" rx="29.37" ry="18"/>
<text text-anchor="middle" x="457" y="-497.35" font-family="Helvetica,sans-Serif" font-size="10.00" fill="#ffffff">numpy</text>
</g>
<!-- numpy&#45;&gt;jax_numpy -->
<g id="edge17" class="edge">
<title>numpy&#45;&gt;jax_numpy</title><style>.edge>path:hover{stroke-width:8}</style>
<path fill="none" stroke="black" d="M461.12,-481.54C462.76,-470.62 463.04,-456.6 457,-445.85"/>
<path fill="none" stroke="black" d="M457,-444.85C443.99,-421.71 374.31,-406.48 325.83,-398.51"/>
<polygon fill="#266ed9" stroke="black" points="326.26,-395.04 315.83,-396.92 325.16,-401.95 326.26,-395.04"/>
</g>
<!-- numpy&#45;&gt;jwave_discretization -->
<g id="edge18" class="edge">
<title>numpy&#45;&gt;jwave_discretization</title><style>.edge>path:hover{stroke-width:8}</style>
<path fill="none" stroke="black" d="M457,-389.85C427.7,-297.81 438.08,-268.49 450,-172.64"/>
</g>
<!-- numpy&#45;&gt;jwave_geometry -->
<g id="edge19" class="edge">
<title>numpy&#45;&gt;jwave_geometry</title><style>.edge>path:hover{stroke-width:8}</style>
<path fill="none" stroke="black" d="M457,-444.85C445.46,-424.32 464.74,-414.1 457,-391.85"/>
<path fill="none" stroke="black" d="M457,-389.85C441.11,-344.19 386.99,-378.24 362,-336.85 336.42,-294.48 343.69,-234.09 351.02,-199.59"/>
<polygon fill="#266ed9" stroke="black" points="354.45,-200.28 353.26,-189.76 347.62,-198.73 354.45,-200.28"/>
</g>
<!-- sympy -->
<g id="node11" class="node">
<title>sympy</title><style>.edge>path:hover{stroke-width:8}</style>
<ellipse fill="#ae33cc" stroke="black" cx="400" cy="-318.85" rx="29.37" ry="18"/>
<text text-anchor="middle" x="400" y="-316.35" font-family="Helvetica,sans-Serif" font-size="10.00" fill="#ffffff">sympy</text>
</g>
<!-- sympy&#45;&gt;jwave_discretization -->
<g id="edge20" class="edge">
<title>sympy&#45;&gt;jwave_discretization</title><style>.edge>path:hover{stroke-width:8}</style>
<path fill="none" stroke="black" d="M412,-245.85C413.08,-209.21 445.48,-209.02 450,-172.64"/>
<path fill="none" stroke="black" d="M450,-170.64C454.02,-138.35 461.69,-127.79 450,-97.43"/>
</g>
<!-- sympy&#45;&gt;jwave_geometry -->
<g id="edge21" class="edge">
<title>sympy&#45;&gt;jwave_geometry</title><style>.edge>path:hover{stroke-width:8}</style>
<path fill="none" stroke="black" d="M404.25,-301.01C407.48,-286.92 411.46,-266.22 412,-247.85"/>
<path fill="none" stroke="black" d="M412,-245.85C412.57,-226.45 400.16,-208.81 387.08,-195.7"/>
<polygon fill="#ae33cc" stroke="black" points="389.1,-192.8 379.41,-188.53 384.33,-197.92 389.1,-192.8"/>
</g>
</g>
</svg>
